<?xml version="1.0" encoding="UTF-8"?>
<!DOCTYPE svg PUBLIC "-//W3C//DTD SVG 1.1//EN" "http://www.w3.org/Graphics/SVG/1.1/DTD/svg11.dtd">
<!-- Creator: CorelDRAW -->
<svg xmlns="http://www.w3.org/2000/svg" xml:space="preserve" width="112.921mm" height="53.6778mm" version="1.1" style="shape-rendering:geometricPrecision; text-rendering:geometricPrecision; image-rendering:optimizeQuality; fill-rule:evenodd; clip-rule:evenodd"
viewBox="0 0 11292.08 5367.78"
 xmlns:xlink="http://www.w3.org/1999/xlink"
 xmlns:xodm="http://www.corel.com/coreldraw/odm/2003">
 <defs>
  <style type="text/css">
   <![CDATA[
    .str0 {stroke:#2E67FF;stroke-width:17.64;stroke-miterlimit:22.9256}
    .fil0 {fill:none}
    .fil1 {fill:#2E67FF;fill-rule:nonzero}
   ]]>
  </style>
 </defs>
 <g id="Layer_x0020_1">
  <metadata id="CorelCorpID_0Corel-Layer"/>
  <g id="_2243714587200">
   <polygon class="fil0" points="-25.5,-1.68 11266.55,-1.68 11266.55,5366.12 -25.5,5366.12 "/>
   <path class="fil1" d="M2215.04 2641.74l-906.05 0 -172.28 515.06 -549.15 0 933.1 -2508.25 479.19 0 938.97 2508.25 -549.74 0 -174.04 -515.06zm-766.7 -419.8l627.35 0 -315.15 -939.57 -312.2 939.57zm3765.9 934.86l-516.82 0 0 -1075.97 -1007.77 0 0 1075.97 -516.82 0 0 -2508.25 516.82 0 0 1016 1007.77 0 0 -1016 516.82 0 0 2508.25zm1125.96 -2508.25l644.4 1819.16 640.88 -1819.16 678.51 0 0 2508.25 -518.58 0 0 -685.57 51.74 -1183.57 -676.75 1869.14 -355.13 0 -674.98 -1867.37 51.74 1181.8 0 685.57 -516.82 0 0 -2508.25 674.99 0zm4313.3 0l0 1652.76c0,274.58 -85.84,491.54 -257.53,651.47 -171.68,159.33 -406.28,239.3 -703.79,239.3 -292.81,0 -525.64,-77.61 -697.91,-232.84 -172.28,-154.63 -259.88,-368.06 -263.41,-639.11l0 -1671.58 516.82 0 0 1655.12c0,164.62 39.39,283.98 118.18,359.24 78.79,75.26 187.56,112.89 326.32,112.89 290.45,0 438.03,-152.87 442.74,-458.02l0 -1669.23 518.58 0z"/>
   <path class="fil1" d="M1206.3 4450.16l-63.11 0 0 -219.85 -240.19 0 0 219.85 -62.89 0 0 -476.57 62.89 0 0 205.11 240.19 0 0 -205.11 63.11 0 0 476.57zm256.14 6.7c-47.93,0 -87.03,-15.75 -117.19,-47.25 -30.05,-31.62 -45.13,-73.73 -45.13,-126.57l0 -11.17c0,-35.08 6.7,-66.47 20.11,-94.07 13.4,-27.59 32.17,-49.26 56.3,-64.79 24.13,-15.64 50.27,-23.46 78.42,-23.46 46.03,0 81.78,15.19 107.36,45.47 25.47,30.38 38.32,73.84 38.32,130.37l0 25.24 -239.96 0c0.89,34.86 11.06,63.01 30.61,84.46 19.55,21.45 44.35,32.17 74.51,32.17 21.34,0 39.43,-4.35 54.29,-13.07 14.86,-8.71 27.82,-20.22 38.99,-34.52l36.98 28.82c-29.72,45.58 -74.29,68.37 -133.61,68.37zm-7.49 -317.71c-24.46,0 -44.91,8.94 -61.55,26.81 -16.54,17.88 -26.81,42.9 -30.72,75.07l177.4 0 0 -4.58c-1.79,-30.94 -10.06,-54.85 -24.91,-71.83 -14.86,-16.98 -34.97,-25.47 -60.22,-25.47zm441.25 311.01c-3.47,-6.93 -6.26,-19.33 -8.49,-37.2 -28.16,29.27 -61.78,43.9 -100.77,43.9 -34.97,0 -63.57,-9.83 -85.91,-29.6 -22.34,-19.77 -33.51,-44.8 -33.51,-75.07 0,-36.87 13.96,-65.58 42,-85.91 28.04,-20.44 67.48,-30.61 118.31,-30.61l58.87 0 0 -27.82c0,-21.11 -6.26,-37.98 -18.88,-50.6 -12.74,-12.51 -31.39,-18.77 -55.97,-18.77 -21.67,0 -39.77,5.47 -54.4,16.31 -14.64,10.95 -21.9,24.13 -21.9,39.55l-60.88 0c0,-17.65 6.25,-34.75 18.77,-51.28 12.62,-16.42 29.6,-29.49 51.16,-39.1 21.45,-9.61 45.02,-14.41 70.83,-14.41 40.77,0 72.72,10.17 95.85,30.61 23.12,20.33 35.19,48.48 35.97,84.23l0 162.99c0,32.51 4.24,58.31 12.51,77.53l0 5.25 -63.56 0zm-100.43 -44.91c18.99,0 36.97,-4.91 53.95,-14.86 17.09,-9.83 29.38,-22.79 36.98,-38.54l0 -73.28 -47.37 0c-74.17,0 -111.26,21.89 -111.26,65.69 0,19.1 6.25,34.07 18.88,44.79 12.73,10.84 28.93,16.2 48.82,16.2zm319.24 44.91l-60.55 0 0 -502.71 60.55 0 0 502.71zm186.2 -439.7l0 85.79 66.02 0 0 46.92 -66.02 0 0 219.52c0,14.19 2.9,24.8 8.82,31.95 5.81,7.04 15.86,10.61 30.05,10.61 7.04,0 16.65,-1.34 28.82,-3.91l0 49.04c-15.97,4.25 -31.39,6.48 -46.47,6.48 -27.03,0 -47.48,-8.15 -61.22,-24.57 -13.74,-16.31 -20.55,-39.55 -20.55,-69.6l0 -219.52 -64.57 0 0 -46.92 64.57 0 0 -85.79 60.55 0zm204.29 128.47c26.81,-32.96 61.78,-49.38 104.68,-49.38 74.85,0 112.61,42.23 113.28,126.68l0 233.93 -60.55 0 0 -234.15c-0.23,-25.47 -6.04,-44.35 -17.54,-56.53 -11.4,-12.17 -29.27,-18.32 -53.51,-18.32 -19.55,0 -36.87,5.25 -51.73,15.64 -14.74,10.5 -26.36,24.24 -34.63,41.22l0 252.14 -60.55 0 0 -502.71 60.55 0 0 191.48zm700.08 311.23c-3.47,-6.93 -6.26,-19.33 -8.49,-37.2 -28.16,29.27 -61.78,43.9 -100.77,43.9 -34.97,0 -63.57,-9.83 -85.91,-29.6 -22.34,-19.77 -33.51,-44.8 -33.51,-75.07 0,-36.87 13.96,-65.58 42,-85.91 28.04,-20.44 67.48,-30.61 118.31,-30.61l58.87 0 0 -27.82c0,-21.11 -6.26,-37.98 -18.88,-50.6 -12.74,-12.51 -31.39,-18.77 -55.97,-18.77 -21.67,0 -39.77,5.47 -54.4,16.31 -14.64,10.95 -21.9,24.13 -21.9,39.55l-60.88 0c0,-17.65 6.25,-34.75 18.77,-51.28 12.62,-16.42 29.6,-29.49 51.16,-39.1 21.45,-9.61 45.02,-14.41 70.83,-14.41 40.77,0 72.72,10.17 95.85,30.61 23.12,20.33 35.19,48.48 35.97,84.23l0 162.99c0,32.51 4.24,58.31 12.51,77.53l0 5.25 -63.56 0zm-100.43 -44.91c18.99,0 36.97,-4.91 53.95,-14.86 17.09,-9.83 29.38,-22.79 36.98,-38.54l0 -73.28 -47.37 0c-74.17,0 -111.26,21.89 -111.26,65.69 0,19.1 6.25,34.07 18.88,44.79 12.73,10.84 28.93,16.2 48.82,16.2zm310.86 -309l1.9 44.35c27.04,-34.07 62.45,-51.05 106.02,-51.05 74.85,0 112.61,42.23 113.28,126.68l0 233.93 -60.55 0 0 -234.15c-0.23,-25.47 -6.04,-44.35 -17.54,-56.53 -11.4,-12.17 -29.27,-18.32 -53.51,-18.32 -19.55,0 -36.87,5.25 -51.73,15.64 -14.74,10.5 -26.36,24.24 -34.63,41.22l0 252.14 -60.55 0 0 -353.91 57.31 0zm304.73 174.05c0,-54.4 12.96,-98.08 38.65,-131.15 25.8,-33.07 59.43,-49.6 101.1,-49.6 41.56,0 74.29,14.19 98.53,42.56l0 -184.66 60.55 0 0 502.71 -55.63 0 -2.91 -37.87c-24.24,29.71 -57.98,44.57 -101.1,44.57 -41.11,0 -74.51,-16.75 -100.32,-50.38 -25.91,-33.63 -38.87,-77.53 -38.87,-131.6l0 -4.58zm60.54 6.82c0,40.1 8.38,71.49 24.92,94.17 16.64,22.68 39.54,33.96 68.7,33.96 38.43,0 66.47,-17.2 84.12,-51.61l0 -162.43c-18.1,-33.4 -45.91,-50.05 -83.45,-50.05 -29.6,0 -52.73,11.4 -69.37,34.3 -16.54,22.9 -24.92,56.75 -24.92,101.66zm973.87 -7.15c0,-34.75 6.81,-65.91 20.44,-93.62 13.63,-27.82 32.62,-49.15 56.97,-64.23 24.24,-15.09 52.06,-22.57 83.23,-22.57 48.26,0 87.25,16.64 117.08,50.05 29.71,33.4 44.57,77.86 44.57,133.27l0 4.25c0,34.52 -6.59,65.46 -19.77,92.83 -13.19,27.37 -32.07,48.71 -56.64,64.01 -24.47,15.31 -52.73,22.9 -84.57,22.9 -48.04,0 -86.91,-16.64 -116.63,-50.04 -29.83,-33.41 -44.68,-77.65 -44.68,-132.61l0 -4.24zm60.88 7.03c0,39.22 9.05,70.83 27.26,94.63 18.21,23.79 42.67,35.63 73.17,35.63 30.72,0 55.19,-12.06 73.28,-36.19 18.1,-24.13 27.15,-57.87 27.15,-101.33 0,-38.87 -9.16,-70.26 -27.59,-94.39 -18.44,-24.13 -42.9,-36.2 -73.51,-36.2 -29.83,0 -53.96,11.84 -72.28,35.64 -18.32,23.79 -27.48,57.86 -27.48,102.21zm563 138.31c-23.46,27.7 -58.09,41.55 -103.67,41.55 -37.76,0 -66.47,-10.95 -86.24,-32.84 -19.77,-22.01 -29.71,-54.41 -29.94,-97.41l0 -230.36 60.55 0 0 228.57c0,53.62 21.78,80.43 65.46,80.43 46.25,0 76.98,-17.2 92.28,-51.61l0 -257.39 60.55 0 0 353.91 -57.65 0 -1.34 -34.85zm364.39 -59.1c0,-16.31 -6.15,-29.05 -18.55,-37.98 -12.29,-9.05 -33.73,-16.87 -64.46,-23.46 -30.61,-6.48 -54.96,-14.41 -72.94,-23.57 -17.99,-9.17 -31.28,-20 -39.89,-32.74 -8.71,-12.62 -12.96,-27.7 -12.96,-45.13 0,-29.04 12.29,-53.62 36.76,-73.62 24.58,-20.11 55.97,-30.16 94.17,-30.16 40.11,0 72.73,10.39 97.64,31.06 25.02,20.77 37.54,47.25 37.54,79.54l-60.89 0c0,-16.65 -7.04,-30.95 -21.11,-43.01 -14.08,-11.96 -31.84,-17.99 -53.18,-17.99 -22.12,0 -39.32,4.8 -51.72,14.41 -12.51,9.61 -18.66,22.12 -18.66,37.65 0,14.63 5.81,25.58 17.32,33.07 11.62,7.37 32.51,14.52 62.67,21.22 30.27,6.82 54.74,14.86 73.51,24.24 18.77,9.39 32.62,20.78 41.67,33.96 9.05,13.19 13.63,29.27 13.63,48.38 0,31.61 -12.63,56.97 -37.99,76.07 -25.24,19.11 -58.09,28.71 -98.53,28.71 -28.37,0 -53.4,-5.02 -75.29,-15.08 -21.79,-10.05 -38.88,-24.02 -51.17,-42 -12.29,-17.99 -18.54,-37.54 -18.54,-58.43l60.55 0c1.11,20.22 9.27,36.31 24.46,48.15 15.08,11.84 35.19,17.76 59.99,17.76 22.9,0 41.34,-4.58 55.19,-13.85 13.85,-9.27 20.78,-21.67 20.78,-37.2zm293.33 100.65c-47.93,0 -87.03,-15.75 -117.19,-47.25 -30.05,-31.62 -45.13,-73.73 -45.13,-126.57l0 -11.17c0,-35.08 6.7,-66.47 20.11,-94.07 13.4,-27.59 32.17,-49.26 56.3,-64.79 24.13,-15.64 50.27,-23.46 78.42,-23.46 46.03,0 81.78,15.19 107.36,45.47 25.47,30.38 38.32,73.84 38.32,130.37l0 25.24 -239.96 0c0.89,34.86 11.06,63.01 30.61,84.46 19.55,21.45 44.35,32.17 74.51,32.17 21.34,0 39.43,-4.35 54.29,-13.07 14.86,-8.71 27.82,-20.22 38.99,-34.52l36.98 28.82c-29.72,45.58 -74.29,68.37 -133.61,68.37zm-7.49 -317.71c-24.46,0 -44.91,8.94 -61.55,26.81 -16.54,17.88 -26.81,42.9 -30.72,75.07l177.4 0 0 -4.58c-1.79,-30.94 -10.06,-54.85 -24.91,-71.83 -14.86,-16.98 -34.97,-25.47 -60.22,-25.47zm283.28 -0.22c26.81,-32.96 61.78,-49.38 104.68,-49.38 74.85,0 112.61,42.23 113.28,126.68l0 233.93 -60.55 0 0 -234.15c-0.23,-25.47 -6.04,-44.35 -17.54,-56.53 -11.4,-12.17 -29.27,-18.32 -53.51,-18.32 -19.55,0 -36.87,5.25 -51.73,15.64 -14.74,10.5 -26.36,24.24 -34.63,41.22l0 252.14 -60.55 0 0 -502.71 60.55 0 0 191.48zm299.48 131.04c0,-34.75 6.81,-65.91 20.44,-93.62 13.63,-27.82 32.62,-49.15 56.97,-64.23 24.24,-15.09 52.06,-22.57 83.23,-22.57 48.26,0 87.25,16.64 117.08,50.05 29.71,33.4 44.57,77.86 44.57,133.27l0 4.25c0,34.52 -6.59,65.46 -19.77,92.83 -13.19,27.37 -32.07,48.71 -56.64,64.01 -24.47,15.31 -52.73,22.9 -84.57,22.9 -48.04,0 -86.91,-16.64 -116.63,-50.04 -29.83,-33.41 -44.68,-77.65 -44.68,-132.61l0 -4.24zm60.88 7.03c0,39.22 9.05,70.83 27.26,94.63 18.21,23.79 42.67,35.63 73.17,35.63 30.72,0 55.19,-12.06 73.28,-36.19 18.1,-24.13 27.15,-57.87 27.15,-101.33 0,-38.87 -9.16,-70.26 -27.59,-94.39 -18.44,-24.13 -42.9,-36.2 -73.51,-36.2 -29.83,0 -53.96,11.84 -72.28,35.64 -18.32,23.79 -27.48,57.86 -27.48,102.21zm410.29 173.16l-60.55 0 0 -502.71 60.55 0 0 502.71zm89.12 -179.86c0,-54.4 12.96,-98.08 38.65,-131.15 25.8,-33.07 59.43,-49.6 101.1,-49.6 41.56,0 74.29,14.19 98.53,42.56l0 -184.66 60.55 0 0 502.71 -55.63 0 -2.91 -37.87c-24.24,29.71 -57.98,44.57 -101.1,44.57 -41.11,0 -74.51,-16.75 -100.32,-50.38 -25.91,-33.63 -38.87,-77.53 -38.87,-131.6l0 -4.58zm60.54 6.82c0,40.1 8.38,71.49 24.92,94.17 16.64,22.68 39.54,33.96 68.7,33.96 38.43,0 66.47,-17.2 84.12,-51.61l0 -162.43c-18.1,-33.4 -45.91,-50.05 -83.45,-50.05 -29.6,0 -52.73,11.4 -69.37,34.3 -16.54,22.9 -24.92,56.75 -24.92,101.66zm-2570.74 173.04l-63.11 0 0 -219.85 -240.19 0 0 219.85 -62.89 0 0 -476.57 62.89 0 0 205.11 240.19 0 0 -205.11 63.11 0 0 476.57zm3148.27 -186.34l0 186.34 -62.78 0 0 -476.57 175.72 0c52.18,0 92.95,13.29 122.55,39.99 29.61,26.59 44.35,61.89 44.35,105.8 0,46.25 -14.41,81.88 -43.34,106.91 -28.93,25.02 -70.38,37.53 -124.23,37.53l-112.27 0zm0 -51.61l112.94 0c33.63,0 59.32,-7.93 77.2,-23.79 17.87,-15.76 26.81,-38.66 26.81,-68.6 0,-28.37 -8.94,-51.05 -26.81,-68.14 -17.88,-16.98 -42.45,-25.81 -73.62,-26.48l-116.52 0 0 187.01zm528.49 -62c-9.16,-1.56 -19.11,-2.35 -29.72,-2.35 -39.77,0 -66.69,16.87 -80.88,50.72l0 251.58 -60.55 0 0 -353.91 58.87 0 1.01 40.78c19.88,-31.62 48.04,-47.48 84.45,-47.48 11.85,0 20.78,1.56 26.82,4.58l0 56.08zm40.19 119.76c0,-34.75 6.81,-65.91 20.44,-93.62 13.63,-27.82 32.62,-49.15 56.97,-64.23 24.24,-15.09 52.06,-22.57 83.23,-22.57 48.26,0 87.25,16.64 117.08,50.05 29.71,33.4 44.57,77.86 44.57,133.27l0 4.25c0,34.52 -6.59,65.46 -19.77,92.83 -13.19,27.37 -32.07,48.71 -56.64,64.01 -24.47,15.31 -52.73,22.9 -84.57,22.9 -48.04,0 -86.91,-16.64 -116.63,-50.04 -29.83,-33.41 -44.68,-77.65 -44.68,-132.61l0 -4.24zm60.88 7.03c0,39.22 9.05,70.83 27.26,94.63 18.21,23.79 42.67,35.63 73.17,35.63 30.72,0 55.19,-12.06 73.28,-36.19 18.1,-24.13 27.15,-57.87 27.15,-101.33 0,-38.87 -9.16,-70.26 -27.59,-94.39 -18.44,-24.13 -42.9,-36.2 -73.51,-36.2 -29.83,0 -53.96,11.84 -72.28,35.64 -18.32,23.79 -27.48,57.86 -27.48,102.21zm329.75 -6.7c0,-54.4 12.96,-98.08 38.65,-131.15 25.8,-33.07 59.43,-49.6 101.1,-49.6 41.56,0 74.29,14.19 98.53,42.56l0 -184.66 60.55 0 0 502.71 -55.63 0 -2.91 -37.87c-24.24,29.71 -57.98,44.57 -101.1,44.57 -41.11,0 -74.51,-16.75 -100.32,-50.38 -25.91,-33.63 -38.87,-77.53 -38.87,-131.6l0 -4.58zm60.54 6.82c0,40.1 8.38,71.49 24.92,94.17 16.64,22.68 39.54,33.96 68.7,33.96 38.43,0 66.47,-17.2 84.12,-51.61l0 -162.43c-18.1,-33.4 -45.91,-50.05 -83.45,-50.05 -29.6,0 -52.73,11.4 -69.37,34.3 -16.54,22.9 -24.92,56.75 -24.92,101.66zm557.76 138.19c-23.46,27.7 -58.09,41.55 -103.67,41.55 -37.76,0 -66.47,-10.95 -86.24,-32.84 -19.77,-22.01 -29.71,-54.41 -29.94,-97.41l0 -230.36 60.55 0 0 228.57c0,53.62 21.78,80.43 65.46,80.43 46.25,0 76.98,-17.2 92.28,-51.61l0 -257.39 60.55 0 0 353.91 -57.65 0 -1.34 -34.85zm299.93 -8.05c21.67,0 40.55,-6.48 56.64,-19.55 16.2,-13.07 25.13,-29.38 26.81,-49.04l57.31 0c-1.12,20.33 -8.05,39.66 -20.89,57.98 -12.96,18.32 -30.17,32.95 -51.61,43.9 -21.45,10.84 -44.24,16.31 -68.26,16.31 -48.15,0 -86.58,-16.08 -115.07,-48.26 -28.37,-32.17 -42.67,-76.3 -42.67,-132.15l0 -10.17c0,-34.41 6.37,-65.13 18.99,-91.94 12.62,-26.81 30.83,-47.7 54.52,-62.56 23.68,-14.86 51.61,-22.23 83.89,-22.23 39.77,0 72.73,11.84 99.09,35.64 26.26,23.79 40.22,54.74 42.01,92.61l-57.31 0c-1.68,-22.9 -10.39,-41.78 -26.03,-56.53 -15.53,-14.75 -34.86,-22.12 -57.76,-22.12 -30.72,0 -54.51,11.06 -71.49,33.18 -16.87,22.23 -25.36,54.18 -25.36,96.18l0 11.4c0,40.77 8.38,72.28 25.25,94.28 16.75,22.01 40.77,33.07 71.94,33.07zm298.36 -396.8l0 85.79 66.02 0 0 46.92 -66.02 0 0 219.52c0,14.19 2.9,24.8 8.82,31.95 5.81,7.04 15.86,10.61 30.05,10.61 7.04,0 16.65,-1.34 28.82,-3.91l0 49.04c-15.97,4.25 -31.39,6.48 -46.47,6.48 -27.03,0 -47.48,-8.15 -61.22,-24.57 -13.74,-16.31 -20.55,-39.55 -20.55,-69.6l0 -219.52 -64.57 0 0 -46.92 64.57 0 0 -85.79 60.55 0zm349.97 345.75c0,-16.31 -6.15,-29.05 -18.55,-37.98 -12.29,-9.05 -33.73,-16.87 -64.46,-23.46 -30.61,-6.48 -54.96,-14.41 -72.94,-23.57 -17.99,-9.17 -31.28,-20 -39.89,-32.74 -8.71,-12.62 -12.96,-27.7 -12.96,-45.13 0,-29.04 12.29,-53.62 36.76,-73.62 24.58,-20.11 55.97,-30.16 94.17,-30.16 40.11,0 72.73,10.39 97.64,31.06 25.02,20.77 37.54,47.25 37.54,79.54l-60.89 0c0,-16.65 -7.04,-30.95 -21.11,-43.01 -14.08,-11.96 -31.84,-17.99 -53.18,-17.99 -22.12,0 -39.32,4.8 -51.72,14.41 -12.51,9.61 -18.66,22.12 -18.66,37.65 0,14.63 5.81,25.58 17.32,33.07 11.62,7.37 32.51,14.52 62.67,21.22 30.27,6.82 54.74,14.86 73.51,24.24 18.77,9.39 32.62,20.78 41.67,33.96 9.05,13.19 13.63,29.27 13.63,48.38 0,31.61 -12.63,56.97 -37.99,76.07 -25.24,19.11 -58.09,28.71 -98.53,28.71 -28.37,0 -53.4,-5.02 -75.29,-15.08 -21.79,-10.05 -38.88,-24.02 -51.17,-42 -12.29,-17.99 -18.54,-37.54 -18.54,-58.43l60.55 0c1.11,20.22 9.27,36.31 24.46,48.15 15.08,11.84 35.19,17.76 59.99,17.76 22.9,0 41.34,-4.58 55.19,-13.85 13.85,-9.27 20.78,-21.67 20.78,-37.2z"/>
   <path class="fil0 str0" d="M722.18 3688.42l9792.55 0c71.91,0 130.74,58.83 130.74,130.74l0 765.99c0,71.91 -58.83,130.74 -130.74,130.74l-9792.55 0c-71.91,0 -130.74,-58.83 -130.74,-130.74l0 -765.99c0,-71.91 58.83,-130.74 130.74,-130.74z"/>
  </g>
 </g>
</svg>
